<?xml version="1.0" encoding="UTF-8"?><svg id="Layer_2" xmlns="http://www.w3.org/2000/svg" width="1334.8" height="601.2" viewBox="0 0 1334.8 601.2"><defs><style>.cls-1{fill:#29313c;}.cls-2{fill:#004385;}</style></defs><g id="WFC_Logo"><g id="Layer_1-2"><path class="cls-2" d="M478.5,479.1h-96.2l-77.3-236.1-77.3,236.1h-95.5L0,0h123.1l62.6,253L263.2,0h83.4l77.3,253L486.4,0h123.1l-131.2,479.1h.2Z"/><path class="cls-2" d="M792.3,479.1v-29.7c-22.1,22.3-42.3,33.1-80.7,33.1s-66.5-12.1-86.8-32.3c-20.2-20.2-31.6-51.2-31.6-84.7,0-54.4,37.1-104.9,123.1-104.9h73.4v-9.5c0-32.9-16.1-45-54.4-45s-40.5,6.8-57.9,24.2l-68.6-68.6c37.1-37.1,70.7-48.4,132-48.4,103.6,0,159.6,43.1,159.6,131.2v234.8h-107.8l-.2-.2ZM789.7,333.7h-55.8c-21.6,0-35,12.1-35,28.9s12.1,30.2,36.3,30.2,31.6-2.1,43.7-13.4c8.1-7.4,10.8-18.9,10.8-36.3v-9.5h0Z"/><path class="cls-2" d="M1076.5,479.1c-80.2,0-112.3-57.3-112.3-107V0h110.4v364.1c0,14.2,7.4,22.1,22.1,22.1h38.4v92.8h-58.6Z"/><path class="cls-2" d="M1275.8,479.1c-80.2,0-112.3-57.3-112.3-107V0h110.4v364.1c0,14.2,7.4,22.1,22.1,22.1h38.4v92.8h-58.6Z"/></g><path class="cls-1" d="M.8,539.7h36v4.6H6.1v22.9h28.9v4.7H6.1v27.8H.8v-60.1Z"/><path class="cls-1" d="M63.9,539.7h5.2v60.1h-5.2v-60.1Z"/><path class="cls-1" d="M99.5,539.7h5.2l33.9,52v-52h5v60.1h-5.1l-34-51.7v51.7h-5v-60.1Z"/><path class="cls-1" d="M208.4,581.7h-27.5l-6.9,18.1h-5.5l23.5-60.1h5.6l23.5,60.1h-5.7l-6.9-18.1ZM194.7,545.5l-12.1,31.6h24.1l-12-31.6Z"/><path class="cls-1" d="M246,539.7h5.2l33.9,52v-52h5v60.1h-5.1l-34-51.7v51.7h-5v-60.1Z"/><path class="cls-1" d="M318.4,569.8c0-6.7,1.1-12.4,3.3-17.1,2.2-4.7,5.3-8.3,9.2-10.8,4-2.5,8.5-3.7,13.7-3.7s11.8,1.7,15.5,5.2c3.6,3.5,6.1,8.2,7.4,14.2l-5,.9c-1.2-5.2-3.2-9.1-5.9-11.8s-6.7-4-11.9-4-8.1,1.1-11.2,3.3c-3.1,2.2-5.5,5.3-7.1,9.3-1.6,4-2.4,8.8-2.4,14.4s.8,10.3,2.5,14.3c1.7,4,4,7.2,7.2,9.3,3.1,2.2,6.9,3.3,11.3,3.3s9.8-1.5,12.7-4.5c2.9-3,4.8-7,5.6-12h5.2c-.7,6.3-3.1,11.4-7.1,15.2-4,3.9-9.5,5.8-16.6,5.8s-10-1.2-13.9-3.7c-3.9-2.5-6.9-6.1-9-10.8-2.1-4.7-3.2-10.3-3.2-16.9Z"/><path class="cls-1" d="M395.9,539.7h5.2v60.1h-5.2v-60.1Z"/><path class="cls-1" d="M465.9,581.7h-27.5l-6.9,18.1h-5.5l23.5-60.1h5.6l23.5,60.1h-5.7l-6.9-18.1ZM452.1,545.5l-12.1,31.6h24.1l-12-31.6Z"/><path class="cls-1" d="M503.4,539.7h5.2v55.4h32.6l-.9,4.6h-36.8v-60.1Z"/><path class="cls-1" d="M599.9,569.8c0-6.7,1.1-12.4,3.3-17.1,2.2-4.7,5.3-8.3,9.2-10.8,4-2.5,8.5-3.7,13.7-3.7s11.8,1.7,15.5,5.2c3.6,3.5,6.1,8.2,7.4,14.2l-5,.9c-1.2-5.2-3.2-9.1-5.9-11.8s-6.7-4-11.9-4-8.1,1.1-11.2,3.3c-3.1,2.2-5.5,5.3-7.1,9.3-1.6,4-2.4,8.8-2.4,14.4s.8,10.3,2.5,14.3c1.7,4,4,7.2,7.2,9.3,3.1,2.2,6.9,3.3,11.3,3.3s9.8-1.5,12.7-4.5c2.9-3,4.8-7,5.6-12h5.2c-.7,6.3-3.1,11.4-7.1,15.2-4,3.9-9.5,5.8-16.6,5.8s-10-1.2-13.9-3.7c-3.9-2.5-6.9-6.1-9-10.8-2.1-4.7-3.2-10.3-3.2-16.9Z"/><path class="cls-1" d="M675.3,569.7c0-6.6,1.1-12.3,3.4-17,2.2-4.7,5.4-8.3,9.4-10.8,4-2.5,8.7-3.7,14-3.7s10.2,1.2,14.2,3.7c4,2.5,7.1,6,9.4,10.7,2.2,4.7,3.4,10.3,3.4,17s-1.1,12.4-3.3,17.1c-2.2,4.7-5.3,8.3-9.3,10.8-4,2.5-8.8,3.7-14.3,3.7s-10.1-1.2-14.1-3.7c-4-2.5-7.1-6.1-9.4-10.8-2.2-4.7-3.4-10.4-3.4-17ZM680.7,569.7c0,5.5.8,10.3,2.5,14.3,1.7,4,4.1,7.2,7.3,9.3,3.2,2.2,7.1,3.3,11.7,3.3s8.5-1.1,11.7-3.3c3.2-2.2,5.6-5.3,7.3-9.3,1.7-4,2.5-8.8,2.5-14.3s-.8-10.3-2.5-14.3c-1.7-4-4.1-7.2-7.3-9.4-3.2-2.2-7.1-3.3-11.7-3.3s-8.5,1.1-11.7,3.3c-3.2,2.2-5.6,5.3-7.3,9.4-1.7,4-2.5,8.8-2.5,14.3Z"/><path class="cls-1" d="M757.3,539.7h20c5.2,0,9.2.7,12.2,2.2,3,1.5,5.1,3.5,6.4,6,1.3,2.5,1.9,5.3,1.9,8.4s-.9,7.2-2.6,9.9c-1.7,2.7-4.5,4.7-8.2,6l12.9,27.6h-5.7l-12-26.5c-1.6.2-3.3.3-5,.3h-14.6v26.2h-5.1v-60.1ZM792.4,556.4c0-4-1.2-7-3.4-9.1-2.3-2.1-6.3-3.1-11.9-3.1h-14.6v24.9h15.2c5.5,0,9.3-1.1,11.5-3.3s3.3-5.3,3.3-9.4Z"/><path class="cls-1" d="M826.3,539.7h20.4c5.2,0,9.2.7,12.2,2.2,3,1.5,5.1,3.5,6.4,6.2,1.3,2.6,1.9,5.7,1.9,9.2s-.7,6.7-2,9.4c-1.3,2.7-3.5,4.9-6.6,6.4-3,1.6-7.1,2.4-12.2,2.4h-15.1v24.3h-5.1v-60.1ZM862.1,557.4c0-4.5-1.2-7.8-3.5-10-2.3-2.2-6.4-3.2-12.2-3.2h-15v26.8h15.1c5.8,0,9.9-1.2,12.2-3.5s3.4-5.7,3.4-10.1Z"/><path class="cls-1" d="M892.4,569.7c0-6.6,1.1-12.3,3.4-17,2.2-4.7,5.4-8.3,9.4-10.8,4-2.5,8.7-3.7,14-3.7s10.2,1.2,14.2,3.7c4,2.5,7.1,6,9.4,10.7,2.2,4.7,3.4,10.3,3.4,17s-1.1,12.4-3.3,17.1c-2.2,4.7-5.3,8.3-9.3,10.8-4,2.5-8.8,3.7-14.3,3.7s-10.1-1.2-14.1-3.7c-4-2.5-7.1-6.1-9.4-10.8-2.2-4.7-3.4-10.4-3.4-17ZM897.8,569.7c0,5.5.8,10.3,2.5,14.3,1.7,4,4.1,7.2,7.3,9.3,3.2,2.2,7.1,3.3,11.7,3.3s8.5-1.1,11.7-3.3c3.2-2.2,5.6-5.3,7.3-9.3,1.7-4,2.5-8.8,2.5-14.3s-.8-10.3-2.5-14.3c-1.7-4-4.1-7.2-7.3-9.4-3.2-2.2-7.1-3.3-11.7-3.3s-8.5,1.1-11.7,3.3c-3.2,2.2-5.6,5.3-7.3,9.4-1.7,4-2.5,8.8-2.5,14.3Z"/><path class="cls-1" d="M974.4,539.7h20c5.2,0,9.2.7,12.2,2.2,3,1.5,5.1,3.5,6.4,6,1.3,2.5,1.9,5.3,1.9,8.4s-.9,7.2-2.6,9.9c-1.7,2.7-4.5,4.7-8.2,6l12.9,27.6h-5.7l-12-26.5c-1.6.2-3.3.3-5,.3h-14.6v26.2h-5.1v-60.1ZM1009.5,556.4c0-4-1.2-7-3.4-9.1-2.3-2.1-6.3-3.1-11.9-3.1h-14.6v24.9h15.2c5.5,0,9.3-1.1,11.5-3.3s3.3-5.3,3.3-9.4Z"/><path class="cls-1" d="M1079.3,581.7h-27.5l-6.9,18.1h-5.5l23.5-60.1h5.6l23.5,60.1h-5.7l-6.9-18.1ZM1065.6,545.5l-12.1,31.6h24.1l-12-31.6Z"/><path class="cls-1" d="M1124.4,544.3h-20.5v-4.6h46.3v4.6h-20.6v55.4h-5.1v-55.4Z"/><path class="cls-1" d="M1175.3,539.7h5.2v60.1h-5.2v-60.1Z"/><path class="cls-1" d="M1208.7,569.7c0-6.6,1.1-12.3,3.4-17,2.2-4.7,5.4-8.3,9.4-10.8,4-2.5,8.7-3.7,14-3.7s10.2,1.2,14.2,3.7c4,2.5,7.1,6,9.4,10.7,2.2,4.7,3.4,10.3,3.4,17s-1.1,12.4-3.3,17.1c-2.2,4.7-5.3,8.3-9.3,10.8-4,2.5-8.8,3.7-14.3,3.7s-10.1-1.2-14.1-3.7c-4-2.5-7.1-6.1-9.4-10.8-2.2-4.7-3.4-10.4-3.4-17ZM1214.1,569.7c0,5.5.8,10.3,2.5,14.3,1.7,4,4.1,7.2,7.3,9.3,3.2,2.2,7.1,3.3,11.7,3.3s8.5-1.1,11.7-3.3c3.2-2.2,5.6-5.3,7.3-9.3,1.7-4,2.5-8.8,2.5-14.3s-.8-10.3-2.5-14.3c-1.7-4-4.1-7.2-7.3-9.4-3.2-2.2-7.1-3.3-11.7-3.3s-8.5,1.1-11.7,3.3c-3.2,2.2-5.6,5.3-7.3,9.4-1.7,4-2.5,8.8-2.5,14.3Z"/><path class="cls-1" d="M1290.7,539.7h5.2l33.9,52v-52h5v60.1h-5.1l-34-51.7v51.7h-5v-60.1Z"/></g></svg>